<?xml version="1.0" encoding="UTF-8" standalone="no"?>
<!-- Created with Inkscape (http://www.inkscape.org/) -->

<svg
   width="100mm"
   height="16mm"
   viewBox="0 0 100 16"
   version="1.1"
   id="svg1"
   inkscape:version="1.3.2 (091e20e, 2023-11-25, custom)"
   sodipodi:docname="coinquest.svg"
   xmlns:inkscape="http://www.inkscape.org/namespaces/inkscape"
   xmlns:sodipodi="http://sodipodi.sourceforge.net/DTD/sodipodi-0.dtd"
   xmlns="http://www.w3.org/2000/svg"
   xmlns:svg="http://www.w3.org/2000/svg">
  <sodipodi:namedview
     id="namedview1"
     pagecolor="#505050"
     bordercolor="#ffffff"
     borderopacity="1"
     inkscape:showpageshadow="0"
     inkscape:pageopacity="0"
     inkscape:pagecheckerboard="1"
     inkscape:deskcolor="#505050"
     inkscape:document-units="mm"
     inkscape:zoom="1.4556538"
     inkscape:cx="167.96576"
     inkscape:cy="38.127197"
     inkscape:window-width="1920"
     inkscape:window-height="1094"
     inkscape:window-x="-11"
     inkscape:window-y="-11"
     inkscape:window-maximized="1"
     inkscape:current-layer="layer1" />
  <defs
     id="defs1" />
  <g
     inkscape:label="Layer 1"
     inkscape:groupmode="layer"
     id="layer1">
    <rect
       style="fill:#03a7eb;fill-opacity:1;stroke:none;stroke-width:1.10421;stroke-linecap:round;stroke-linejoin:round;stroke-miterlimit:16;paint-order:stroke fill markers"
       id="rect3"
       width="1.6520084"
       height="3.8799076"
       x="31.712662"
       y="47.382248"
       transform="matrix(0.74613716,-0.66579227,0.68979501,0.72400472,0,0)"
       rx="0.5" />
    <g
       id="text1"
       style="font-size:21.1281px;font-family:Bahnschrift;-inkscape-font-specification:'Bahnschrift, Normal';fill:#ffffff;stroke-linecap:round;stroke-linejoin:round;stroke-miterlimit:16;paint-order:stroke fill markers"
       aria-label="Coin Quest">
      <path
         d="m 5.2201262,15.309619 q -1.5681012,0 -2.744177,-0.691203 Q 1.2998733,13.916897 0.64993669,12.65829 3.5390258e-8,11.399682 3.5390258e-8,9.7181003 V 5.6018348 Q 3.5390258e-8,3.9099362 0.64993669,2.6513287 1.2998733,1.3927212 2.4759492,0.70151876 3.652025,-1.6856939e-7 5.2201262,-1.6856939e-7 q 1.2998733,0 2.3727846,0.55708855856939 Q 8.6761385,1.114177 9.3982904,2.1148731 10.130759,3.1155692 10.38867,4.4567083 v 0 H 8.232531 v 0 Q 8.0365183,3.7345565 7.5722779,3.1981008 7.1183539,2.6513287 6.4993666,2.3521515 5.8803793,2.0529743 5.2201262,2.0529743 q -1.382405,0 -2.2283543,0.9800632 -0.8356328,0.9697468 -0.8356328,2.5687973 v 4.1162655 q 0,1.5990507 0.8356328,2.5687977 0.8459493,0.969746 2.2283543,0.969746 0.9800632,0 1.8466454,-0.618987 Q 7.9333538,12.01867 8.232531,10.85291 v 0 h 2.156139 v 0 q -0.257911,1.341139 -0.9903796,2.341836 -0.7324683,1.000696 -1.8053796,1.557784 -1.0729113,0.557089 -2.3727846,0.557089 z"
         id="path3" />
      <path
         d="M 24.687277,2.2593034 V 0.15474665 h 2.104557 V 2.2593034 Z m 0,12.8955686 V 4.4463919 h 2.104557 V 15.154872 Z m 5.302658,0 V 4.4463919 h 2.104557 V 15.154872 Z m 6.499366,0 V 8.6658219 q 0,-1.1348101 -0.588038,-1.7537973 -0.577721,-0.6189873 -1.650632,-0.6189873 -1.031646,0 -1.599051,0.5467721 -0.557088,0.5467721 -0.557088,1.5371517 L 31.877846,6.3136702 q 0.49519,-0.9697468 1.289557,-1.495886 0.804683,-0.5261392 1.77443,-0.5261392 1.743481,0 2.692595,1.1451265 0.95943,1.13481 0.95943,3.2187339 v 6.4993666 z"
         id="path5" />
      <path
         d="M 67.810056,15.154872 V 4.4463919 h 2.09424 V 15.154872 Z M 63.456512,4.4463919 v 6.5096831 q 0,1.124493 0.567405,1.743481 0.577722,0.608671 1.619684,0.608671 1.041961,0 1.59905,-0.546773 0.567405,-0.557088 0.567405,-1.557784 l 0.14443,2.23867 q -0.28886,0.722152 -1.011012,1.299874 -0.722152,0.567405 -1.887911,0.567405 -1.774431,0 -2.744177,-1.13481 -0.959431,-1.145127 -0.959431,-3.218734 V 4.4463919 Z M 77.486895,15.309619 q -2.238671,0 -3.466329,-1.248291 -1.227658,-1.248291 -1.227658,-3.548861 V 9.3054421 q 0,-2.3934175 1.176076,-3.7036073 1.186392,-1.3101898 3.332215,-1.3101898 2.022025,0 3.125886,1.4855695 1.114177,1.4855695 1.114177,4.1678478 V 10.646581 H 74.319743 V 8.9546826 h 5.220126 v 0 Q 79.447021,7.6548093 78.858983,6.922341 78.281262,6.1898727 77.301199,6.1898727 q -1.186393,0 -1.846646,0.7840506 Q 74.7943,7.7579738 74.7943,9.1919611 v 1.3617719 q 0,1.330823 0.701519,2.042658 0.711836,0.711836 1.991076,0.711836 0.63962,0 1.268924,-0.257912 0.629304,-0.257911 1.124493,-0.722152 v 0 l 1.382405,1.382405 v 0 q -0.794367,0.763418 -1.784746,1.186393 -0.99038,0.412658 -1.991076,0.412658 z m 10.729107,0 q -1.423671,0 -2.58943,-0.412658 -1.155443,-0.422975 -2.073608,-1.258608 v 0 l 1.248291,-1.537152 v 0 q 0.876899,0.660253 1.722848,0.99038 0.856266,0.330127 1.691899,0.330127 1.248291,0 1.867278,-0.381709 0.629304,-0.392026 0.629304,-1.16576 0,-0.598354 -0.422975,-0.845949 -0.412658,-0.247595 -1.093544,-0.31981 -0.67057,-0.08253 -1.444304,-0.134114 -0.649936,-0.05158 -1.289557,-0.154747 -0.63962,-0.113481 -1.165759,-0.392025 Q 84.770306,9.7387332 84.450496,9.1816446 84.141002,8.624556 84.141002,7.6857587 q 0,-1.7022151 1.041962,-2.5481644 1.041962,-0.8459493 3.105253,-0.8459493 1.258607,0 2.341835,0.340443 1.083228,0.340443 2.032342,1.041962 v 0 L 91.39347,7.2112017 v 0 Q 90.588786,6.695379 89.804736,6.4374676 89.031002,6.1795563 88.288217,6.1795563 q -1.072911,0 -1.609367,0.3713923 -0.536456,0.361076 -0.536456,1.0935442 0,0.4848734 0.371393,0.701519 0.371392,0.2063291 0.980063,0.2682278 0.608671,0.061899 1.31019,0.113481 0.670569,0.041266 1.351455,0.1547468 0.691203,0.1031646 1.268924,0.4126582 0.577722,0.3094937 0.928481,0.9181644 0.35076,0.608671 0.35076,1.660949 0,1.722848 -1.124494,2.579114 -1.114177,0.856266 -3.363164,0.856266 z m 9.955381,-0.103165 q -1.320506,0 -1.91886,-0.732468 -0.588038,-0.732468 -0.588038,-2.104557 V 1.3308225 h 2.104557 V 12.390062 q 0,0.381709 0.154746,0.598354 0.154747,0.216646 0.453924,0.216646 h 1.011013 v 2.001392 z M 94.560624,6.3446195 V 4.4463919 h 4.828101 v 1.8982276 z"
         id="path7" />
    </g>
    <ellipse
       style="fill:#fcd53f;fill-opacity:1;stroke:none;stroke-width:0.978357;stroke-linecap:round;stroke-linejoin:round;stroke-miterlimit:16;paint-order:stroke fill markers"
       id="path1"
       cx="17.290161"
       cy="10.714564"
       rx="4.4759026"
       ry="4.4759998" />
    <ellipse
       style="fill:#ff0000;fill-opacity:1;stroke:none;stroke-width:1.67413;stroke-linecap:round;stroke-linejoin:round;stroke-miterlimit:16;paint-order:stroke fill markers"
       id="path1-2"
       cx="52.595493"
       cy="7.9000454"
       rx="7.6590424"
       ry="7.6592083" />
  </g>
</svg>
