<?xml version="1.0" encoding="UTF-8" standalone="no"?>
<!-- Created with Inkscape (http://www.inkscape.org/) -->

<svg
   width="100mm"
   height="50mm"
   viewBox="0 0 100 50"
   version="1.1"
   id="svg1"
   inkscape:version="1.3.2 (091e20e, 2023-11-25, custom)"
   sodipodi:docname="drawing.svg"
   xmlns:inkscape="http://www.inkscape.org/namespaces/inkscape"
   xmlns:sodipodi="http://sodipodi.sourceforge.net/DTD/sodipodi-0.dtd"
   xmlns="http://www.w3.org/2000/svg"
   xmlns:svg="http://www.w3.org/2000/svg">
  <sodipodi:namedview
     id="namedview1"
     pagecolor="#505050"
     bordercolor="#ffffff"
     borderopacity="1"
     inkscape:showpageshadow="0"
     inkscape:pageopacity="0"
     inkscape:pagecheckerboard="1"
     inkscape:deskcolor="#505050"
     inkscape:document-units="mm"
     inkscape:zoom="1.0293027"
     inkscape:cx="203.05009"
     inkscape:cy="74.322164"
     inkscape:window-width="1920"
     inkscape:window-height="1094"
     inkscape:window-x="-11"
     inkscape:window-y="-11"
     inkscape:window-maximized="1"
     inkscape:current-layer="layer1" />
  <defs
     id="defs1" />
  <g
     inkscape:label="Layer 1"
     inkscape:groupmode="layer"
     id="layer1">
    <rect
       style="fill:#ffffff;fill-opacity:1;stroke:#3f8c2c;stroke-width:0.0264583;stroke-linecap:round;stroke-linejoin:round;paint-order:stroke fill markers"
       id="rect1"
       width="50"
       height="50"
       x="0.01322915"
       y="0.01322915" />
    <rect
       style="fill:#ff0000;fill-opacity:1;stroke:#3f8c2c;stroke-width:0.0264583;stroke-linecap:round;stroke-linejoin:round;paint-order:stroke fill markers"
       id="rect1-0"
       width="50"
       height="50"
       x="50.013229"
       y="0.01322915" />
    <path
       style="font-size:14.5839px;font-family:LTAIdentity;-inkscape-font-specification:'LTAIdentity, Normal';fill:#ff0000;stroke:#3f8c2c;stroke-width:0.0210345;stroke-linecap:round;stroke-linejoin:round;paint-order:stroke fill markers"
       d="m 12.397486,18.818933 -0.377415,1.224819 q -0.377416,-0.192268 -0.897252,-0.327568 -0.512715,-0.1353 -1.02543,-0.1353 -0.733468,0 -1.1393676,0.291963 -0.4058996,0.291963 -0.4058996,0.826041 0,0.427263 0.2848418,0.776194 0.2919629,0.341811 1.0467937,0.833163 l 0.6480147,0.434383 q 0.733468,0.484232 1.246183,0.968463 0.519837,0.484231 0.790436,1.053914 0.277721,0.562563 0.277721,1.29603 0,1.331636 -0.88301,2.093588 -0.875888,0.761952 -2.5279706,0.761952 -0.5910467,0 -1.0895199,-0.106816 Q 7.8471384,28.710064 7.4483598,28.560522 7.0495813,28.41098 6.7647395,28.268559 l 0.4486258,-1.352998 q 0.3631733,0.284842 0.9613411,0.534078 0.5981678,0.242116 1.2248198,0.242116 0.5483205,0 0.8830098,-0.163784 0.34181,-0.170905 0.498473,-0.441505 0.156663,-0.2706 0.156663,-0.576805 0,-0.498473 -0.320447,-0.875888 Q 10.296778,25.249236 9.4778577,24.7294 L 8.8298426,24.309258 Q 7.7474437,23.625638 7.2062443,22.89217 6.6721659,22.151582 6.6721659,21.111909 q 0,-0.861646 0.4272627,-1.466935 0.4272627,-0.605289 1.1820935,-0.918615 0.7548308,-0.313326 1.7375349,-0.313326 1.331636,0 2.378429,0.4059 z m 6.750751,6.081372 q 0,-0.413021 -0.05697,-0.875888 -0.04985,-0.469989 -0.206511,-0.875889 -0.149542,-0.4059 -0.434383,-0.669378 -0.277721,-0.263479 -0.726347,-0.263479 -0.733468,0 -1.139367,0.726347 -0.398779,0.726346 -0.398779,1.958287 0,0.989825 0.19939,1.595114 0.199389,0.605289 0.526957,0.890131 0.334689,0.277721 0.733468,0.277721 0.726346,0 1.110883,-0.726347 0.391657,-0.733468 0.391657,-2.036619 z m 1.944045,-3.795517 v 10.482178 h -1.944045 v -3.937937 q -0.199389,0.34181 -0.512715,0.626652 -0.313326,0.27772 -0.740589,0.448625 -0.420142,0.163784 -0.947099,0.163784 -0.918615,0 -1.545267,-0.512715 -0.626652,-0.512715 -0.947099,-1.395725 -0.313326,-0.883009 -0.313326,-2.001013 0,-1.345878 0.398779,-2.236009 0.398778,-0.89013 1.075278,-1.324514 0.676499,-0.441505 1.50254,-0.441505 0.640894,0 1.082399,0.234995 0.448626,0.234994 0.733468,0.569683 0.291963,0.334689 0.448626,0.669379 0.0071,-0.341811 0.149541,-0.648016 0.142421,-0.306204 0.413021,-0.498473 0.2706,-0.199389 0.662257,-0.199389 z m 3.638854,7.76906 q -0.911494,0 -1.438451,-0.356052 -0.526958,-0.363173 -0.74771,-0.975583 -0.220752,-0.619531 -0.220752,-1.381483 v -5.055942 h 1.936924 v 4.849432 q 0,0.227873 0.02848,0.519836 0.02848,0.284842 0.142421,0.555442 0.121058,0.263478 0.363173,0.441504 0.242116,0.178027 0.6765,0.178027 0.448625,0 0.733467,-0.206511 0.291963,-0.20651 0.455747,-0.526957 0.163784,-0.327568 0.234995,-0.697863 0.07833,-0.377415 0.09257,-0.726346 0.02136,-0.356052 0.02136,-0.605289 v -3.781275 h 1.936925 v 7.662245 h -0.555442 q -0.391657,0 -0.662257,-0.192269 -0.2706,-0.199389 -0.413021,-0.498473 -0.142421,-0.306205 -0.149542,-0.626652 -0.284841,0.548321 -0.704983,0.861647 -0.413021,0.313326 -0.868768,0.441505 -0.455747,0.121057 -0.861646,0.121057 z m 7.263466,-2.236008 q 0,0.377416 0.163784,0.626652 0.163784,0.242116 0.413021,0.363173 0.256357,0.113937 0.519836,0.113937 0.88301,0 1.260425,-0.776194 0.199389,-0.427263 0.234994,-0.911494 0.04273,-0.491352 0.04273,-1.061035 v -0.448626 q -1.317394,0.334689 -1.979651,0.847404 -0.655136,0.512715 -0.655136,1.246183 z m 4.806705,2.157677 h -0.904372 q -0.398779,0 -0.655136,-0.192268 -0.249237,-0.19939 -0.363174,-0.484231 -0.113936,-0.291963 -0.113936,-0.562563 -0.377416,0.669378 -1.004068,1.011188 -0.626652,0.334689 -1.409967,0.334689 -0.719225,0 -1.22482,-0.291962 -0.498473,-0.299084 -0.75483,-0.769073 -0.256358,-0.47711 -0.256358,-1.004068 0,-0.854525 0.5412,-1.474056 0.54832,-0.619531 1.552387,-1.018309 1.011189,-0.398779 2.421156,-0.591047 v -0.121058 q 0,-0.61241 -0.192269,-0.918615 -0.185147,-0.306205 -0.519836,-0.405899 -0.327568,-0.106816 -0.74771,-0.106816 -0.626652,0 -1.267546,0.242116 -0.633773,0.234994 -0.947099,0.519836 L 30.563272,21.66023 q 0.256358,-0.142421 0.697862,-0.299084 0.441505,-0.163784 1.004068,-0.277721 0.569683,-0.121058 1.182093,-0.121058 0.469989,0 1.004068,0.07121 0.541199,0.07121 1.004067,0.327568 0.469989,0.256357 0.769073,0.797557 0.299084,0.534078 0.299084,1.474056 v 2.321461 q 0,0.754831 0.05697,1.459814 0.05697,0.704984 0.220752,1.381483 z m 2.762967,-6.501514 0.04985,0.726346 q 0.306205,-0.932857 0.854526,-1.488298 0.555441,-0.555442 1.203456,-0.555442 0.356053,0 0.555442,0.04985 0.20651,0.04273 0.20651,0.04273 l -0.185147,1.844351 q 0,0 -0.213631,-0.07121 -0.213632,-0.07121 -0.512716,-0.07121 -0.242115,0 -0.534078,0.09257 -0.284842,0.08545 -0.54832,0.299084 -0.263479,0.20651 -0.441505,0.569684 -0.163784,0.377415 -0.206511,0.89013 -0.04273,0.505595 -0.04273,0.95422 v 3.183108 h -1.936924 v -7.662245 h 0.619531 q 0.569683,0 0.833162,0.327568 0.2706,0.320447 0.299084,0.868768 z m 10.425209,2.819933 h -4.742616 q 0,1.281789 0.555441,1.929804 0.555442,0.648015 1.474056,0.648015 0.427263,0 0.790436,-0.121058 0.363174,-0.121058 0.633773,-0.277721 0.2706,-0.163784 0.420142,-0.284842 0.156663,-0.121057 0.156663,-0.121057 l 0.5412,1.174972 q -0.263479,0.170905 -0.704984,0.370295 -0.441505,0.192268 -1.011188,0.334689 -0.562563,0.149542 -1.182094,0.149542 -1.139367,0 -1.97965,-0.469989 -0.833163,-0.47711 -1.28891,-1.374362 -0.455746,-0.897252 -0.455746,-2.157677 0,-1.274667 0.469989,-2.157676 0.469989,-0.890131 1.274667,-1.352999 0.804678,-0.462868 1.794503,-0.462868 0.925736,0 1.523904,0.299084 0.605289,0.299084 0.95422,0.769073 0.356052,0.469989 0.519836,1.004067 0.170905,0.534079 0.213631,1.01831 0.04273,0.484231 0.04273,0.797557 z m -4.69989,-1.004067 h 2.855539 q 0.0071,-0.113937 0.0071,-0.220752 0,-0.961341 -0.377415,-1.452694 -0.370295,-0.498473 -0.961341,-0.498473 -0.348932,0 -0.697863,0.192269 -0.34181,0.185147 -0.576805,0.662257 -0.227873,0.47711 -0.249236,1.317393 z"
       id="text3"
       aria-label="Square" />
    <path
       d="m 52.988731,19.830612 h -0.591047 v 7.961328 h 0.512715 q 0.377416,0 0.776194,-0.04985 0.398779,-0.04985 0.769073,-0.256357 0.370295,-0.213632 0.662257,-0.669379 0.299084,-0.462868 0.469989,-1.253304 0.178027,-0.797557 0.178027,-2.036619 0,-1.08952 -0.156663,-1.780261 -0.156663,-0.697862 -0.434384,-1.08952 -0.2706,-0.398778 -0.626652,-0.569683 -0.356052,-0.178027 -0.754831,-0.213632 -0.398778,-0.04273 -0.804678,-0.04273 z m -2.663271,9.072211 v -7.320434 q 0,-0.405899 0.469989,-0.961341 0.469989,-0.555442 1.189215,-0.754831 v -0.04985 h -1.879956 l -0.09257,-1.146488 h 2.748724 q 0.655136,0 1.331635,0.04273 0.676499,0.04273 1.317393,0.256358 0.640894,0.20651 1.210578,0.690741 0.633773,0.576805 0.918615,1.303151 0.291963,0.726347 0.356052,1.417088 0.07121,0.68362 0.07121,1.110883 0,0.847405 -0.185148,1.780261 -0.185147,0.925736 -0.697862,1.737535 -0.512715,0.8118 -1.459814,1.338757 -0.662258,0.348931 -1.424209,0.455747 -0.754831,0.09969 -1.723293,0.09969 z m 10.496421,-2.122071 q 0,0.377415 0.163784,0.626652 0.163784,0.242116 0.413021,0.363173 0.256357,0.113937 0.519836,0.113937 0.88301,0 1.260425,-0.776194 0.199389,-0.427263 0.234995,-0.911494 0.04273,-0.491352 0.04273,-1.061035 v -0.448626 q -1.317394,0.334689 -1.979651,0.847404 -0.655136,0.512715 -0.655136,1.246183 z m 4.806706,2.157677 h -0.904373 q -0.398779,0 -0.655136,-0.192269 -0.249237,-0.199389 -0.363174,-0.484231 -0.113936,-0.291962 -0.113936,-0.562562 -0.377416,0.669378 -1.004068,1.011188 -0.626652,0.334689 -1.409967,0.334689 -0.719225,0 -1.224819,-0.291962 -0.498474,-0.299084 -0.754831,-0.769073 -0.256358,-0.47711 -0.256358,-1.004068 0,-0.854525 0.5412,-1.474056 0.54832,-0.619531 1.552387,-1.018309 1.011189,-0.398779 2.421156,-0.591047 v -0.121058 q 0,-0.61241 -0.192268,-0.918615 -0.185148,-0.306205 -0.519837,-0.405899 -0.327568,-0.106816 -0.747709,-0.106816 -0.626652,0 -1.267547,0.242115 -0.633773,0.234995 -0.947099,0.519837 l -0.391657,-1.303152 q 0.256358,-0.14242 0.697862,-0.299083 0.441505,-0.163784 1.004068,-0.277721 0.569683,-0.121058 1.182093,-0.121058 0.469989,0 1.004068,0.07121 0.541199,0.07121 1.004067,0.327568 0.469989,0.256357 0.769073,0.797557 0.299084,0.534078 0.299084,1.474056 v 2.321461 q 0,0.75483 0.05697,1.459814 0.05697,0.704983 0.220753,1.381483 z m 5.967434,-7.526945 -0.327568,1.196336 q 0,0 -0.199389,-0.0997 -0.199389,-0.106816 -0.562562,-0.213631 -0.363174,-0.106816 -0.854526,-0.106816 -0.284842,0 -0.534078,0.07833 -0.242116,0.07121 -0.398779,0.227874 -0.149542,0.156663 -0.149542,0.420142 0,0.306204 0.170905,0.505594 0.178026,0.199389 0.712105,0.491352 l 0.776194,0.420142 q 0.911494,0.491352 1.29603,1.061035 0.391657,0.562563 0.391657,1.36012 0,1.032551 -0.747709,1.673445 -0.74771,0.633773 -2.086466,0.633773 -0.626652,0 -1.303152,-0.156663 -0.669378,-0.163784 -1.039672,-0.370294 l 0.384536,-1.288909 q 0,0 0.2706,0.163784 0.277721,0.163784 0.697862,0.327568 0.427263,0.163784 0.897252,0.163784 0.313326,0 0.583926,-0.07833 0.270599,-0.07833 0.427262,-0.249237 0.163784,-0.178026 0.163784,-0.462868 0,-0.313326 -0.192268,-0.541199 -0.185147,-0.227874 -0.47711,-0.413021 -0.291963,-0.192268 -0.61241,-0.370294 l -0.640894,-0.356053 q -0.81892,-0.455746 -1.139367,-0.989825 -0.313326,-0.541199 -0.313326,-1.239062 0,-0.68362 0.34181,-1.153609 0.34181,-0.469989 0.947099,-0.712104 0.605289,-0.249237 1.388604,-0.249237 0.291963,0 0.897252,0.04985 0.61241,0.04273 1.23194,0.277721 z m 1.552389,7.491339 v -9.478111 q 0,-0.291962 0.263479,-0.68362 0.2706,-0.391657 0.704983,-0.68362 0.441505,-0.291963 0.954221,-0.291963 v 4.657163 q 0.299083,-0.562562 0.89013,-0.925735 0.598168,-0.363174 1.438451,-0.363174 0.740589,0 1.203457,0.234995 0.462868,0.234994 0.719225,0.640894 0.256358,0.398778 0.348932,0.911494 0.09969,0.512715 0.09969,1.068156 v 4.913521 H 77.834058 V 24.17445 q 0,-0.569684 -0.09257,-0.975584 -0.08545,-0.405899 -0.34181,-0.619531 -0.256357,-0.220752 -0.761952,-0.220752 -0.455746,0 -0.811799,0.277721 -0.348931,0.270599 -0.534078,0.776194 -0.156663,0.448626 -0.192268,0.95422 -0.02848,0.505594 -0.02848,0.847404 v 3.688701 z"
       id="text3-2"
       style="font-size:14.5839px;font-family:LTAIdentity;-inkscape-font-specification:'LTAIdentity, Normal';fill:#ffffff;stroke:#3f8c2c;stroke-width:0.0242678;stroke-linecap:round;stroke-linejoin:round;paint-order:stroke fill markers"
       aria-label="Dash" />
  </g>
</svg>
